<svg viewBox="0 0 11 11" width="220px" height="220px" xmlns="http://www.w3.org/2000/svg"><path fill-rule="evenodd" d="M 0,0 11,0 11,3 8,3 8,4 10,4 10,5 11,5 11,10 9,10 9,11 6,11 6,6 5,6 5,11 2,11 2,10 0,10 0,5 1,5 1,4 3,4 3,3 0,3z" fill="#A854A8"/><path fill-rule="evenodd" d="M 1,1 2,1 2,2 1,2z" fill="#ffffff"/><path fill-rule="evenodd" d="M 3,1 5,1 5,3 4,3 4,2 3,2z" fill="#ffffff"/><path fill-rule="evenodd" d="M 6,1 8,1 8,2 7,2 7,3 6,3z" fill="#ffffff"/><path fill-rule="evenodd" d="M 9,1 10,1 10,2 9,2z" fill="#ffffff"/><path fill-rule="evenodd" d="M 4,4 5,4 5,5 4,5z" fill="#ffffff"/><path fill-rule="evenodd" d="M 6,4 7,4 7,5 6,5z" fill="#ffffff"/><path fill-rule="evenodd" d="M 2,5 3,5 3,6 2,6z" fill="#ffffff"/><path fill-rule="evenodd" d="M 8,5 9,5 9,6 8,6z" fill="#ffffff"/><path fill-rule="evenodd" d="M 1,6 2,6 2,7 1,7z" fill="#ffffff"/><path fill-rule="evenodd" d="M 9,6 10,6 10,7 9,7z" fill="#ffffff"/><path fill-rule="evenodd" d="M 3,7 4,7 4,10 3,10z" fill="#ffffff"/><path fill-rule="evenodd" d="M 7,7 8,7 8,10 7,10z" fill="#ffffff"/><path fill-rule="evenodd" d="M 1,8 2,8 2,9 1,9z" fill="#ffffff"/><path fill-rule="evenodd" d="M 9,8 10,8 10,9 9,9z" fill="#ffffff"/></svg>